<svg width="189" height="85" viewBox="0 0 189 85" fill="none" xmlns="http://www.w3.org/2000/svg">
<path d="M65.2939 26.7833L55.5375 12.6899C54.8144 11.6475 53.8533 10.7925 52.7338 10.1957C51.6144 9.59882 50.3688 9.27734 49.1003 9.25787L30.5851 8.99225H30.5469C20.9879 8.99225 13.6536 10.5911 8.92998 18.3944C4.53223 25.6579 2.65625 38.0309 2.65625 59.7656V62.4219H8.72528L4.81844 82.3438H10.2322L14.1391 62.4219H15.9375C20.2758 62.4606 24.4552 60.7914 27.5732 57.7748C30.392 55.0777 32.4252 51.3878 33.4533 47.1043L33.4626 47.0658L38.0186 25.2344H32.5915L28.2786 45.9013C26.9651 51.3267 23.0373 57.1094 15.9375 57.1094H7.97871C8.12298 38.3055 9.8351 27.157 13.4747 21.1448C16.5293 16.0979 20.9943 14.3064 30.5284 14.3039L49.0239 14.5695C49.4468 14.576 49.862 14.6831 50.2351 14.8821C50.6083 15.081 50.9287 15.3661 51.1697 15.7136L62.2061 31.6542L77.0312 34.1252V36.9406L74.5589 50.1258C73.8293 54.0173 72.582 55.9777 67.4671 56.5921L46.4983 60.1795L46.3597 82.3438H51.6722L51.7829 64.6643L68.1687 61.8586C71.8808 61.4022 74.6195 60.2059 76.5402 58.2024C78.1821 56.4895 79.1813 54.3011 79.7806 51.1049L82.3438 37.4344V29.6248L65.2939 26.7833Z" fill="white"/>
<path d="M83.8281 59.8203H91.7148C93.2695 59.8203 94.5234 60.0312 95.4766 60.4531C96.4375 60.875 97.2305 61.4805 97.8555 62.2695C98.4805 63.0586 98.9336 63.9766 99.2148 65.0234C99.4961 66.0703 99.6367 67.1797 99.6367 68.3516C99.6367 70.1875 99.4258 71.6133 99.0039 72.6289C98.5898 73.6367 98.0117 74.4844 97.2695 75.1719C96.5273 75.8516 95.7305 76.3047 94.8789 76.5312C93.7148 76.8438 92.6602 77 91.7148 77H83.8281V59.8203ZM89.1367 63.7109V73.0977H90.4375C91.5469 73.0977 92.3359 72.9766 92.8047 72.7344C93.2734 72.4844 93.6406 72.0547 93.9062 71.4453C94.1719 70.8281 94.3047 69.832 94.3047 68.457C94.3047 66.6367 94.0078 65.3906 93.4141 64.7188C92.8203 64.0469 91.8359 63.7109 90.4609 63.7109H89.1367ZM101.77 68.4219C101.77 65.6172 102.551 63.4336 104.113 61.8711C105.676 60.3086 107.852 59.5273 110.641 59.5273C113.5 59.5273 115.703 60.2969 117.25 61.8359C118.797 63.3672 119.57 65.5156 119.57 68.2812C119.57 70.2891 119.23 71.9375 118.551 73.2266C117.879 74.5078 116.902 75.5078 115.621 76.2266C114.348 76.9375 112.758 77.293 110.852 77.293C108.914 77.293 107.309 76.9844 106.035 76.3672C104.77 75.75 103.742 74.7734 102.953 73.4375C102.164 72.1016 101.77 70.4297 101.77 68.4219ZM107.078 68.4453C107.078 70.1797 107.398 71.4258 108.039 72.1836C108.688 72.9414 109.566 73.3203 110.676 73.3203C111.816 73.3203 112.699 72.9492 113.324 72.207C113.949 71.4648 114.262 70.1328 114.262 68.2109C114.262 66.5938 113.934 65.4141 113.277 64.6719C112.629 63.9219 111.746 63.5469 110.629 63.5469C109.559 63.5469 108.699 63.9258 108.051 64.6836C107.402 65.4414 107.078 66.6953 107.078 68.4453ZM131.066 70.7773V67.2031H139.27V74.5273C137.699 75.5977 136.309 76.3281 135.098 76.7188C133.895 77.1016 132.465 77.293 130.809 77.293C128.77 77.293 127.105 76.9453 125.816 76.25C124.535 75.5547 123.539 74.5195 122.828 73.1445C122.125 71.7695 121.773 70.1914 121.773 68.4102C121.773 66.5352 122.16 64.9062 122.934 63.5234C123.707 62.1328 124.84 61.0781 126.332 60.3594C127.496 59.8047 129.062 59.5273 131.031 59.5273C132.93 59.5273 134.348 59.6992 135.285 60.043C136.23 60.3867 137.012 60.9219 137.629 61.6484C138.254 62.3672 138.723 63.2812 139.035 64.3906L133.914 65.3047C133.703 64.6562 133.344 64.1602 132.836 63.8164C132.336 63.4727 131.695 63.3008 130.914 63.3008C129.75 63.3008 128.82 63.707 128.125 64.5195C127.438 65.3242 127.094 66.6016 127.094 68.3516C127.094 70.2109 127.441 71.5391 128.137 72.3359C128.84 73.1328 129.816 73.5312 131.066 73.5312C131.66 73.5312 132.227 73.4453 132.766 73.2734C133.305 73.1016 133.922 72.8086 134.617 72.3945V70.7773H131.066ZM151.387 72.1367L155.922 72.6523C155.672 73.5977 155.262 74.418 154.691 75.1133C154.121 75.8008 153.391 76.3359 152.5 76.7188C151.617 77.1016 150.492 77.293 149.125 77.293C147.805 77.293 146.703 77.1719 145.82 76.9297C144.945 76.6797 144.191 76.2812 143.559 75.7344C142.926 75.1797 142.43 74.5312 142.07 73.7891C141.711 73.0469 141.531 72.0625 141.531 70.8359C141.531 69.5547 141.75 68.4883 142.188 67.6367C142.508 67.0117 142.945 66.4531 143.5 65.9609C144.055 65.4609 144.625 65.0898 145.211 64.8477C146.141 64.4648 147.332 64.2734 148.785 64.2734C150.816 64.2734 152.363 64.6367 153.426 65.3633C154.496 66.0898 155.246 67.1523 155.676 68.5508L151.188 69.1484C151.047 68.6172 150.789 68.2188 150.414 67.9531C150.047 67.6797 149.551 67.543 148.926 67.543C148.137 67.543 147.496 67.8281 147.004 68.3984C146.52 68.9609 146.277 69.8164 146.277 70.9648C146.277 71.9883 146.52 72.7656 147.004 73.2969C147.488 73.8281 148.105 74.0938 148.855 74.0938C149.48 74.0938 150.004 73.9336 150.426 73.6133C150.855 73.293 151.176 72.8008 151.387 72.1367ZM162.461 68.5859L157.902 68.1055C158.074 67.3086 158.32 66.6836 158.641 66.2305C158.969 65.7695 159.438 65.3711 160.047 65.0352C160.484 64.793 161.086 64.6055 161.852 64.4727C162.617 64.3398 163.445 64.2734 164.336 64.2734C165.766 64.2734 166.914 64.3555 167.781 64.5195C168.648 64.6758 169.371 65.0078 169.949 65.5156C170.355 65.8672 170.676 66.3672 170.91 67.0156C171.145 67.6562 171.262 68.2695 171.262 68.8555V74.3516C171.262 74.9375 171.297 75.3984 171.367 75.7344C171.445 76.0625 171.609 76.4844 171.859 77H167.383C167.203 76.6797 167.086 76.4375 167.031 76.2734C166.977 76.1016 166.922 75.8359 166.867 75.4766C166.242 76.0781 165.621 76.5078 165.004 76.7656C164.16 77.1094 163.18 77.2812 162.062 77.2812C160.578 77.2812 159.449 76.9375 158.676 76.25C157.91 75.5625 157.527 74.7148 157.527 73.707C157.527 72.7617 157.805 71.9844 158.359 71.375C158.914 70.7656 159.938 70.3125 161.43 70.0156C163.219 69.6562 164.379 69.4062 164.91 69.2656C165.441 69.1172 166.004 68.9258 166.598 68.6914C166.598 68.1055 166.477 67.6953 166.234 67.4609C165.992 67.2266 165.566 67.1094 164.957 67.1094C164.176 67.1094 163.59 67.2344 163.199 67.4844C162.895 67.6797 162.648 68.0469 162.461 68.5859ZM166.598 71.0938C165.941 71.3281 165.258 71.5352 164.547 71.7148C163.578 71.9727 162.965 72.2266 162.707 72.4766C162.441 72.7344 162.309 73.0273 162.309 73.3555C162.309 73.7305 162.438 74.0391 162.695 74.2812C162.961 74.5156 163.348 74.6328 163.855 74.6328C164.387 74.6328 164.879 74.5039 165.332 74.2461C165.793 73.9883 166.117 73.6758 166.305 73.3086C166.5 72.9336 166.598 72.4492 166.598 71.8555V71.0938ZM174.285 59.8203H179.066V77H174.285V59.8203ZM182.277 59.8203H187.059V77H182.277V59.8203Z" fill="white"/>
</svg>
